<svg width="47" height="41" viewBox="0 0 47 41" fill="none" xmlns="http://www.w3.org/2000/svg">
<g opacity="0.2">
<path d="M7.18637 40.2154C11.0528 40.2154 14.2162 37.052 14.2162 33.1855C14.2162 29.3191 11.0528 26.1557 7.18637 26.1557C3.31994 26.1557 0.156494 29.3191 0.156494 33.1855C0.156494 37.052 3.31994 40.2154 7.18637 40.2154ZM7.18637 30.8423C8.47518 30.8423 9.52966 31.8967 9.52966 33.1855C9.52966 34.4744 8.47518 35.5288 7.18637 35.5288C5.89756 35.5288 4.84308 34.4744 4.84308 33.1855C4.84308 31.8967 5.89756 30.8423 7.18637 30.8423Z" fill="#FF7F51"/>
<path d="M20.5198 31.2874L30.6194 26.554L40.719 31.2874L39.3364 20.2271L46.9521 12.0959L36.0089 9.98692L30.6194 0.215393L25.2298 9.98692L14.2866 12.0959L21.9023 20.2271L20.5198 31.2874ZM28.2761 14.158L30.6194 9.91662L32.9627 14.158L37.7195 15.0719L34.4155 18.6102L35.0248 23.414L30.6194 21.3753L26.2374 23.4374L26.8467 18.6337L23.5426 15.0953L28.2761 14.158Z" fill="#FF7F51"/>
</g>
</svg>
