<svg width="57" height="40" viewBox="0 0 57 40" fill="none" xmlns="http://www.w3.org/2000/svg">
<g opacity="0.2">
<path d="M17.3501 40H21.2186V38.0658C21.2186 19.942 35.9768 5.18375 54.1006 5.18375H56.0348V1.31528H54.1006C33.8298 1.31528 17.3501 17.795 17.3501 38.0658V40Z" fill="#FF7F51"/>
<path d="M15.3578 6.90522L11.5474 0L7.73694 6.90522L0 8.39458L5.39652 14.1393L4.41006 21.9536L11.5474 18.6074L18.6847 21.9536L17.6983 14.1393L23.0948 8.39458L15.3578 6.90522ZM13.9652 15.4739L11.5474 14.352L9.12959 15.4932L9.45841 12.824L7.62089 10.8704L10.2514 10.3675L11.5474 8.00774L12.8433 10.3482L15.4739 10.8511L13.6364 12.8046L13.9652 15.4739Z" fill="#FF7F51"/>
</g>
</svg>
