<svg width="22" height="20" viewBox="0 0 22 20" fill="none" xmlns="http://www.w3.org/2000/svg">
<path opacity="0.2" d="M5.69468 19.9697C5.34317 19.9697 4.99167 19.8918 4.64017 19.619C3.81999 18.9956 3.8981 17.9825 3.95669 17.5344L4.30819 13.2872C4.32772 13.1118 4.30819 13.0339 4.30819 12.9949L1.45711 9.58546C1.14466 9.23477 0.480711 8.45547 0.773631 7.48133C1.08608 6.48772 2.10153 6.23444 2.53115 6.13703L6.84683 5.06548L6.86635 5.02652L9.15113 1.28585C9.36593 0.935162 9.91272 -5.72205e-06 11.0063 -5.72205e-06C12.0803 -5.72205e-06 12.6466 0.935162 12.8614 1.28585L15.1462 5.08497L19.4619 6.15651C19.8915 6.27341 20.907 6.5072 21.2194 7.50081C21.5319 8.47495 20.8484 9.25425 20.5359 9.60494L17.6848 13.0144C17.6848 13.0534 17.6848 13.1313 17.6848 13.3066L18.0363 17.5539C18.0754 18.002 18.173 19.0151 17.3529 19.6385C16.5132 20.262 15.5368 19.8723 15.1072 19.697H15.0876L11.1625 18.0604C11.1039 18.0409 10.8891 18.0409 10.811 18.0604L6.90541 19.697C6.90541 19.697 6.90541 19.697 6.88588 19.697C6.63202 19.7944 6.2024 19.9697 5.69468 19.9697ZM10.9868 15.1185C11.4359 15.1185 11.885 15.1965 12.2756 15.3523L14.99 16.4823L14.7557 13.521C14.6971 12.8391 14.7361 11.9429 15.4001 11.1441L17.47 8.65029L14.2675 7.87099C13.2911 7.63719 12.9396 7.15013 12.6466 6.6241L12.588 6.52668L11.0063 3.87704L9.34641 6.64358C9.05349 7.15013 8.70198 7.63719 7.72558 7.87099L4.50347 8.66977L6.57343 11.1636C7.23739 11.9623 7.27644 12.8391 7.21786 13.521L6.98352 16.4823L9.69791 15.3523C10.0885 15.1965 10.5376 15.1185 10.9868 15.1185Z" fill="#171B26"/>
</svg>
