<svg width="100" height="98" viewBox="0 0 100 98" fill="none" xmlns="http://www.w3.org/2000/svg">
<path d="M57.2357 98C56.435 98 55.7711 97.3376 55.7711 96.5388V59.5023C55.7711 58.7035 56.435 58.0411 57.2357 58.0411C58.0363 58.0411 58.7003 58.7035 58.7003 59.5023V96.5388C58.7003 97.3376 58.0559 98 57.2357 98ZM43.2537 98C42.453 98 41.7891 97.3376 41.7891 96.5388V80.8163C41.7891 80.0175 42.453 79.3551 43.2537 79.3551C44.0543 79.3551 44.7183 80.0175 44.7183 80.8163V96.5388C44.7183 97.3376 44.0543 98 43.2537 98ZM43.2537 75.3612C42.453 75.3612 41.7891 74.6987 41.7891 73.9V59.5023C41.7891 58.7035 42.453 58.0411 43.2537 58.0411C44.0543 58.0411 44.7183 58.7035 44.7183 59.5023V73.9C44.7183 74.6987 44.0543 75.3612 43.2537 75.3612Z" fill="#FF7F51"/>
<path d="M8.88592 74.8871C7.36274 74.8871 5.87861 74.0883 5.09749 72.6661L2.12924 67.3473C0.977095 65.2627 1.71916 62.6325 3.80865 61.4636L53.0386 34.0904C55.1281 32.9215 57.7644 33.6813 58.9361 35.7659L61.9043 41.0847C63.0565 43.1694 62.3144 45.7995 60.2249 46.9685L10.9949 74.3416C10.3115 74.7118 9.58893 74.8871 8.88592 74.8871ZM55.1477 36.4478C54.9133 36.4478 54.679 36.5063 54.4642 36.6232L5.21466 64.0158C4.53118 64.386 4.29685 65.2432 4.66788 65.9251L7.63613 71.2439C8.00716 71.9063 8.88592 72.1595 9.54987 71.7894L58.7994 44.4162C59.4829 44.0461 59.7172 43.1888 59.3462 42.5069L56.3779 37.1882C56.1241 36.7206 55.6359 36.4478 55.1477 36.4478Z" fill="#FF7F51"/>
<path d="M27.0181 65.2154C26.5104 65.2154 26.0027 64.9426 25.7293 64.4751L19.9685 54.1492C19.578 53.4479 19.8318 52.5517 20.5348 52.162C21.2378 51.7724 22.1361 52.0256 22.5267 52.727L28.2874 63.0528C28.678 63.7542 28.4241 64.6504 27.7211 65.04C27.4868 65.1569 27.2525 65.2154 27.0181 65.2154ZM42.7772 56.4482C42.2695 56.4482 41.7617 56.1754 41.4883 55.7079L35.7276 45.3821C35.337 44.6612 35.5909 43.7845 36.2939 43.3753C37.0164 42.9857 37.8952 43.239 38.3053 43.9403L44.066 54.2661C44.4566 54.9675 44.2027 55.8637 43.4997 56.2534C43.2654 56.3703 43.0311 56.4482 42.7772 56.4482Z" fill="#FF7F51"/>
<path d="M14.6355 56.8516C7.66401 56.8516 2.56722 54.2214 0.692534 49.5261C-0.947815 45.4542 0.399613 40.7394 3.9537 38.0898C6.29706 36.3363 9.28483 35.6544 12.6241 36.1025C16.354 36.6091 20.3181 38.4794 24.419 41.6941C25.0634 42.2006 25.1611 43.1163 24.6729 43.7397C24.1651 44.3632 23.2278 44.4606 22.6029 43.9735C15.9634 38.7911 9.65587 37.4663 5.71122 40.4277C3.21164 42.298 2.2743 45.5906 3.42645 48.4351C5.08632 52.6238 10.5151 54.6111 17.9357 53.7343C18.7364 53.6369 19.4784 54.2019 19.5565 55.0007C19.6542 55.7995 19.0879 56.5398 18.2872 56.6178C17.0179 56.7736 15.8072 56.8516 14.6355 56.8516Z" fill="#FF7F51"/>
<path d="M74.7315 97.9964H25.7554C22.8847 97.9964 20.5609 95.678 20.5609 92.814V66.5319C20.5609 65.7331 21.2249 65.0707 22.0255 65.0707C22.8262 65.0707 23.4901 65.7331 23.4901 66.5319V92.814C23.4901 94.0609 24.5056 95.074 25.7554 95.074H74.7315C75.9813 95.074 76.9967 94.0609 76.9967 92.814V61.5833C76.9967 61.2521 76.7038 60.9599 76.3718 60.9599H34.5625C33.7618 60.9599 33.0979 60.2975 33.0979 59.4987C33.0979 58.6999 33.7618 58.0375 34.5625 58.0375H76.3914C78.3442 58.0375 79.9454 59.6351 79.9454 61.5833V92.814C79.9454 95.678 77.6021 97.9964 74.7315 97.9964Z" fill="#FF7F51"/>
<path d="M21.2415 54.8924C20.7338 54.8924 20.2261 54.6196 19.9527 54.1325L17.9608 50.5672C17.2383 49.2814 17.0625 47.7812 17.4726 46.359C17.8827 44.9367 18.82 43.7483 20.1089 43.0274L28.7402 38.2347C30.0291 37.5138 31.5327 37.3385 32.9583 37.7476C34.3838 38.1568 35.575 39.0919 36.2976 40.3778L38.2894 43.9431C38.4847 44.2743 38.5238 44.6835 38.4261 45.0536C38.3285 45.4238 38.0746 45.7355 37.7231 45.9303L21.964 54.717C21.7297 54.8339 21.4758 54.8924 21.2415 54.8924ZM31.4351 40.4557C30.986 40.4557 30.5563 40.5726 30.1658 40.7869L21.554 45.5797C20.9486 45.9109 20.4994 46.4759 20.3042 47.1578C20.1089 47.8396 20.187 48.541 20.5385 49.145L21.8274 51.4439L35.0478 44.099L33.7394 41.8195C33.4074 41.2155 32.8411 40.7674 32.1576 40.5726C31.9233 40.4947 31.6694 40.4557 31.4351 40.4557Z" fill="#FF7F51"/>
<path d="M18.7477 49.0117C18.5719 49.0117 18.4157 48.9923 18.24 48.9143C15.838 48.0376 14.1391 47.6674 11.2489 47.3362C10.4483 47.2388 9.86246 46.518 9.9601 45.7192C10.0577 44.9204 10.7803 44.3359 11.5809 44.4333C14.7054 44.7645 16.6387 45.2126 19.2554 46.1673C20.017 46.4595 20.4076 47.2973 20.1146 48.0571C19.8998 48.6416 19.3531 49.0117 18.7477 49.0117Z" fill="#FF7F51"/>
<path d="M40.3171 44.295C40.0046 44.295 39.6726 44.1976 39.3993 43.9833C38.7744 43.4768 38.6572 42.5611 39.1649 41.9376C43.8907 35.9954 45.0233 30.3065 42.1918 26.6827C40.2585 24.1889 36.8606 23.3707 33.9314 24.676C33.1894 25.0072 32.3301 24.676 31.9982 23.9357C31.6662 23.1953 31.9982 22.3381 32.7402 22.0069C36.8997 20.1366 41.7426 21.325 44.5156 24.8903C46.2145 27.0724 46.9175 29.8779 46.5465 32.9756C46.1364 36.4046 44.4179 40.0283 41.4692 43.7495C41.1763 44.1002 40.7467 44.295 40.3171 44.295ZM26.9404 42.3663C26.1984 42.3663 25.5735 41.8207 25.4953 41.0609C24.8314 35.1577 25.5539 30.3455 27.6239 26.7607C28.034 26.0593 28.9323 25.8255 29.6157 26.2346C30.3188 26.6438 30.5726 27.54 30.1625 28.2413C28.4245 31.2222 27.8192 35.5473 28.405 40.7492C28.5027 41.548 27.9168 42.2688 27.1162 42.3663C27.0576 42.3663 26.999 42.3663 26.9404 42.3663Z" fill="#FF7F51"/>
<path d="M33.4832 41.0067C33.4441 41.0067 33.4051 41.0067 33.366 41.0067C32.5653 40.9482 31.96 40.2469 32.0186 39.4286C32.2138 37.0517 33.3269 33.7202 34.6744 31.4991C35.104 30.8173 36.0023 30.5835 36.6857 31.0121C37.3692 31.4407 37.6036 32.3369 37.1739 33.0188C36.0804 34.8307 35.104 37.7531 34.9478 39.6624C34.8892 40.4222 34.2448 41.0067 33.4832 41.0067Z" fill="#FF7F51"/>
<path d="M67.704 52.5759C67.3525 52.5759 67.001 52.4395 66.7081 52.1862C66.1222 51.6407 66.0832 50.7055 66.63 50.1211C72.8789 43.3606 71.0238 25.4755 71.0042 25.3002C70.9261 24.5014 71.512 23.7805 72.3126 23.6831C73.1133 23.6052 73.8358 24.1896 73.9334 24.9884C74.0115 25.7677 75.9448 44.3737 68.7781 52.1083C68.4851 52.42 68.0946 52.5759 67.704 52.5759Z" fill="#FF7F51"/>
<path d="M82.5406 32.2198C82.4234 32.2198 82.3258 32.2003 82.2086 32.1808C81.4275 32.0054 80.9198 31.2261 81.115 30.4274C81.1541 30.291 81.9352 26.901 84.4153 23.1214C87.7155 18.0948 92.4608 14.7049 98.1629 13.3411C98.9441 13.1462 99.7447 13.6333 99.9205 14.4321C100.096 15.2309 99.6275 16.0102 98.8269 16.1855C93.8277 17.374 89.8245 20.2184 86.8953 24.641C84.7082 27.992 83.9661 31.0508 83.9661 31.0898C83.8099 31.7522 83.2045 32.2198 82.5406 32.2198Z" fill="#3D424D"/>
<path d="M55.7482 22.0695C55.3967 22.0695 55.0257 21.9915 54.6937 21.7188C53.8735 21.0953 53.9712 20.0822 54.0102 19.6341L54.3617 15.3869C54.3813 15.2116 54.3617 15.1336 54.3617 15.0947L51.5107 11.6852C51.1982 11.3345 50.5343 10.5552 50.8467 9.58109C51.1592 8.58748 52.1551 8.3342 52.5847 8.23679L56.9199 7.16524L56.9394 7.12628L59.2047 3.36613C59.4195 3.01544 59.9858 2.08027 61.0598 2.08027C62.1534 2.08027 62.7002 3.01544 62.915 3.36613L65.1607 7.1068C65.1607 7.12628 65.1802 7.12628 65.1802 7.14576L69.4959 8.21731C69.9255 8.31472 70.941 8.568 71.2534 9.56161C71.5659 10.5357 70.9019 11.2956 70.5895 11.6657L67.7384 15.1142C67.7384 15.1531 67.7384 15.2311 67.7384 15.4064L68.0704 19.6536C68.129 20.1017 68.2071 21.1148 67.3869 21.7383C66.5472 22.3617 65.5708 21.9721 65.1412 21.7967C65.1412 21.7967 65.1412 21.7967 65.1217 21.7967L61.2161 20.1602C61.1379 20.1407 60.9427 20.1407 60.8646 20.1602L56.959 21.7967H56.9394C56.7051 21.8941 56.256 22.0695 55.7482 22.0695ZM54.557 10.7695L56.6465 13.2633C57.33 14.0816 57.3495 14.9973 57.2909 15.6207L57.0566 18.5821L59.771 17.4521C60.5521 17.1209 61.5871 17.1209 62.3487 17.4521L65.0631 18.5821L64.8287 15.6207C64.7701 14.9388 64.8092 14.0426 65.4927 13.2438L67.5626 10.7501L64.3405 9.97075C63.3837 9.73695 63.0322 9.26937 62.7197 8.76282L61.0598 5.9768L59.4 8.72386C59.107 9.23041 58.736 9.71747 57.7596 9.97075L54.557 10.7695Z" fill="#3D424D"/>
<path d="M84.3954 55.6591C84.0439 55.6591 83.6924 55.5811 83.3409 55.3084C82.5207 54.6849 82.5988 53.6718 82.6574 53.2237L83.0089 48.9765C83.0285 48.8012 83.0089 48.7232 83.0089 48.6843L80.1579 45.2748C79.8454 44.9241 79.1815 44.1448 79.4744 43.1707C79.7868 42.1771 80.8023 41.9238 81.2319 41.8264L85.5476 40.7548L85.5671 40.7159L87.8519 36.9752C88.0667 36.6245 88.6135 35.6894 89.707 35.6894C90.7811 35.6894 91.3474 36.6245 91.5622 36.9752L93.847 40.7743L98.1626 41.8459C98.5923 41.9628 99.6077 42.1966 99.9202 43.1902C100.233 44.1643 99.5491 44.9436 99.2367 45.2943L96.3856 48.7038C96.3856 48.7427 96.3856 48.8207 96.3856 48.996L96.7371 53.2432C96.7761 53.6913 96.8738 54.7044 96.0536 55.3279C95.2139 55.9513 94.2375 55.5617 93.8079 55.3863H93.7884L89.8633 53.7498C89.8047 53.7303 89.5899 53.7303 89.5117 53.7498L85.6062 55.3863C85.6062 55.3863 85.6062 55.3863 85.5866 55.3863C85.3328 55.4837 84.9031 55.6591 84.3954 55.6591ZM89.6875 50.8079C90.1366 50.8079 90.5858 50.8858 90.9763 51.0417L93.6907 52.1717L93.4564 49.2103C93.3978 48.5284 93.4369 47.6322 94.1008 46.8334L96.1708 44.3397L92.9682 43.5603C91.9918 43.3266 91.6403 42.8395 91.3474 42.3135L91.2888 42.216L89.707 39.5664L88.0472 42.3329C87.7542 42.8395 87.4027 43.3266 86.4263 43.5603L83.2042 44.3591L85.2742 46.8529C85.9381 47.6517 85.9772 48.5284 85.9186 49.2103L85.6843 52.1717L88.3987 51.0417C88.7892 50.8858 89.2384 50.8079 89.6875 50.8079Z" fill="#FF7F51"/>
<path d="M84.3526 14.612C80.3104 14.612 77.0297 11.3389 77.0297 7.30601C77.0297 3.2731 80.3104 1.14441e-05 84.3526 1.14441e-05C88.3949 1.14441e-05 91.6756 3.2731 91.6756 7.30601C91.6756 11.3389 88.3949 14.612 84.3526 14.612ZM84.3526 2.92241C81.9312 2.92241 79.9589 4.89016 79.9589 7.30601C79.9589 9.72185 81.9312 11.6896 84.3526 11.6896C86.7741 11.6896 88.7464 9.72185 88.7464 7.30601C88.7464 4.89016 86.7741 2.92241 84.3526 2.92241Z" fill="#FF7F51"/>
</svg>
