<svg width="18" height="21" viewBox="0 0 18 21" fill="none" xmlns="http://www.w3.org/2000/svg">
<path d="M7.9998 21C7.16647 20.9167 6.36647 20.7125 5.5998 20.3875C4.83314 20.0625 4.0998 19.6334 3.3998 19.1L4.7998 17.65C5.28314 18 5.79564 18.2834 6.3373 18.5C6.87897 18.7167 7.43314 18.8667 7.9998 18.95V21ZM9.9998 21V18.95C11.7331 18.7 13.1665 17.9209 14.2998 16.6125C15.4331 15.3042 15.9998 13.7834 15.9998 12.05C15.9998 10.1 15.3206 8.44588 13.9623 7.08755C12.604 5.72922 10.9498 5.05005 8.9998 5.05005H8.7998L10.3998 6.65005L8.9998 8.05005L4.9998 4.05005L8.9998 0.0500488L10.3998 1.50005L8.8498 3.05005H8.9998C10.2498 3.05005 11.4206 3.28755 12.5123 3.76255C13.604 4.23755 14.554 4.87922 15.3623 5.68755C16.1706 6.49588 16.8123 7.44588 17.2873 8.53755C17.7623 9.62922 17.9998 10.8 17.9998 12.05C17.9998 14.3334 17.2415 16.3209 15.7248 18.0125C14.2081 19.7042 12.2998 20.7001 9.9998 21ZM1.9498 17.65C1.41647 16.95 0.987305 16.2167 0.662305 15.45C0.337305 14.6834 0.133138 13.8834 0.0498047 13.05H2.0998C2.18314 13.6167 2.33314 14.1709 2.5498 14.7125C2.76647 15.2542 3.0498 15.7667 3.3998 16.25L1.9498 17.65ZM0.0498047 11.05C0.149805 10.2 0.358138 9.38338 0.674805 8.60005C0.991471 7.81672 1.41647 7.10005 1.9498 6.45005L3.3998 7.85005C3.0498 8.33338 2.76647 8.84588 2.5498 9.38755C2.33314 9.92922 2.18314 10.4834 2.0998 11.05H0.0498047Z" fill="white"/>
</svg>
